<svg width="53" height="58" viewBox="0 0 53 58" fill="none" xmlns="http://www.w3.org/2000/svg">
<path d="M39.0007 57.9997L38.4304 25.7211L53 25.7213V57.9997H39.0007Z" fill="black"/>
<path d="M0.0170545 58L0.0139461 24.886H14.5645V58H0.0170545Z" fill="black"/>
<path d="M26.5465 51.7277C21.5173 51.7277 16.9974 50.6039 12.9868 48.3563C8.97615 46.1086 5.79312 43.0261 3.43768 39.1088C1.14589 35.1915 0 30.7926 0 25.912C0 20.9672 1.14589 16.5683 3.43768 12.7152C5.79312 8.79788 8.97615 5.71541 12.9868 3.46778C16.9974 1.15593 21.5173 0 26.5465 0C31.5757 0 36.0638 1.15593 40.0107 3.46778C44.0214 5.71541 47.1726 8.79788 49.4643 12.7152C51.8198 16.5683 52.9975 20.9672 52.9975 25.912C52.9975 30.7926 51.8198 35.1915 49.4643 39.1088C47.1726 43.0261 44.0214 46.1086 40.0107 48.3563C36.0001 50.6039 31.512 51.7277 26.5465 51.7277ZM26.5465 38.7235C28.9019 38.7235 30.9391 38.1456 32.6579 36.9896C34.3768 35.8337 35.7136 34.2925 36.6685 32.3659C37.6235 30.4394 38.1009 28.256 38.1009 25.8157C38.1009 23.4396 37.6235 21.2883 36.6685 19.3618C35.7136 17.4352 34.3768 15.894 32.6579 14.7381C30.9391 13.5821 28.9019 13.0042 26.5465 13.0042C24.1911 13.0042 22.1221 13.5821 20.3396 14.7381C18.6207 15.894 17.2839 17.4352 16.329 19.3618C15.3741 21.2883 14.8966 23.4396 14.8966 25.8157C14.8966 28.256 15.3741 30.4394 16.329 32.3659C17.2839 34.2925 18.6207 35.8337 20.3396 36.9896C22.1221 38.1456 24.1911 38.7235 26.5465 38.7235Z" fill="black"/>
</svg>
