<svg width="26" height="29" viewBox="0 0 26 29" fill="none" xmlns="http://www.w3.org/2000/svg">
<path d="M19.3063 28.4873L19.0347 13.0789L25.9742 13.079V28.4873H19.3063Z" fill="black"/>
<path d="M0.738592 28.4874L0.737111 12.6802H7.66749V28.4874H0.738592Z" fill="black"/>
<path d="M13.3745 25.4933C10.9791 25.4933 8.82627 24.9569 6.91602 23.8839C5.00578 22.811 3.48971 21.3396 2.36782 19.4696C1.27625 17.5997 0.730469 15.4998 0.730469 13.17C0.730469 10.8096 1.27625 8.70975 2.36782 6.87046C3.48971 5.0005 5.00578 3.52907 6.91602 2.45615C8.82627 1.35257 10.9791 0.800781 13.3745 0.800781C15.7699 0.800781 17.9075 1.35257 19.7874 2.45615C21.6977 3.52907 23.1986 5.0005 24.2902 6.87046C25.412 8.70975 25.973 10.8096 25.973 13.17C25.973 15.4998 25.412 17.5997 24.2902 19.4696C23.1986 21.3396 21.6977 22.811 19.7874 23.8839C17.8772 24.9569 15.7395 25.4933 13.3745 25.4933ZM13.3745 19.2857C14.4964 19.2857 15.4666 19.0098 16.2853 18.458C17.104 17.9062 17.7407 17.1705 18.1956 16.2509C18.6504 15.3312 18.8778 14.2889 18.8778 13.1241C18.8778 11.9898 18.6504 10.9629 18.1956 10.0432C17.7407 9.12359 17.104 8.38787 16.2853 7.83608C15.4666 7.2843 14.4964 7.0084 13.3745 7.0084C12.2526 7.0084 11.2671 7.2843 10.4181 7.83608C9.59946 8.38787 8.96272 9.12359 8.50789 10.0432C8.05307 10.9629 7.82566 11.9898 7.82566 13.1241C7.82566 14.2889 8.05307 15.3312 8.50789 16.2509C8.96272 17.1705 9.59946 17.9062 10.4181 18.458C11.2671 19.0098 12.2526 19.2857 13.3745 19.2857Z" fill="black"/>
</svg>
