<svg width="171" height="36" viewBox="0 0 171 36" fill="none" xmlns="http://www.w3.org/2000/svg">
<path d="M11.2974 21.8175H1.82584V19.3882H11.2974C13.2754 19.3882 14.8806 19.0643 16.113 18.4165C17.3607 17.7532 18.266 16.8586 18.829 15.7326C19.4072 14.6067 19.6962 13.3419 19.6962 11.9383C19.6962 10.5656 19.4072 9.30077 18.829 8.14396C18.266 6.98715 17.3607 6.0617 16.113 5.36761C14.8806 4.6581 13.2754 4.30334 11.2974 4.30334H2.80723V35.5373H0V1.8509H11.2974C13.7318 1.8509 15.7783 2.27506 17.4368 3.12339C19.1105 3.97172 20.3733 5.15167 21.2254 6.66324C22.0774 8.17481 22.5035 9.91774 22.5035 11.892C22.5035 13.9589 22.0774 15.7404 21.2254 17.2365C20.3733 18.7172 19.1181 19.8509 17.4596 20.6375C15.8011 21.4242 13.7471 21.8175 11.2974 21.8175Z" fill="black"/>
<path d="M42.5894 31.0488V18.1388C42.5894 16.9512 42.346 15.9254 41.8591 15.0617C41.3722 14.1979 40.657 13.5347 39.7137 13.072C38.7703 12.6093 37.6064 12.3779 36.2218 12.3779C34.9437 12.3779 33.8025 12.6093 32.7983 13.072C31.8093 13.5193 31.0257 14.1285 30.4476 14.8997C29.8846 15.6555 29.6031 16.4961 29.6031 17.4216L26.8643 17.3985C26.8643 16.4576 27.0926 15.5476 27.549 14.6684C28.0055 13.7892 28.6521 13.0026 29.489 12.3085C30.3258 11.6144 31.3224 11.0668 32.4788 10.6658C33.6504 10.2494 34.9361 10.0411 36.3359 10.0411C38.1009 10.0411 39.6528 10.3419 40.9918 10.9434C42.346 11.545 43.4034 12.4473 44.1642 13.6504C44.9249 14.8535 45.3053 16.365 45.3053 18.1851V30.2853C45.3053 31.1491 45.3662 32.0437 45.4879 32.9692C45.6249 33.8946 45.815 34.6581 46.0585 35.2596V35.5373H43.16C42.9774 34.982 42.8328 34.2879 42.7263 33.455C42.635 32.6067 42.5894 31.8046 42.5894 31.0488ZM43.2284 20.9614L43.2741 23.09H37.9107C36.5109 23.09 35.2556 23.2211 34.1449 23.4833C33.0494 23.7301 32.1212 24.1003 31.3605 24.5938C30.5997 25.072 30.0139 25.6504 29.6031 26.329C29.2075 27.0077 29.0097 27.7789 29.0097 28.6427C29.0097 29.5373 29.2303 30.3548 29.6716 31.0951C30.128 31.8355 30.7671 32.4293 31.5887 32.8766C32.4256 33.3085 33.4145 33.5244 34.5557 33.5244C36.0772 33.5244 37.4162 33.2391 38.5725 32.6684C39.7441 32.0977 40.7103 31.3496 41.4711 30.4242C42.2318 29.4987 42.7416 28.4884 43.0002 27.3933L44.187 28.9897C43.9892 29.7609 43.624 30.5553 43.0915 31.3728C42.5742 32.1748 41.8971 32.9306 41.0603 33.6401C40.2234 34.3342 39.2344 34.9049 38.0933 35.3522C36.9673 35.7841 35.6892 36 34.259 36C32.6462 36 31.2388 35.6915 30.0367 35.0746C28.8499 34.4576 27.9218 33.617 27.2523 32.5527C26.5981 31.473 26.271 30.2545 26.271 28.8972C26.271 27.6632 26.5296 26.5604 27.0469 25.5887C27.5643 24.6015 28.3098 23.7686 29.2836 23.09C30.2726 22.3959 31.4594 21.8715 32.844 21.5167C34.2438 21.1465 35.811 20.9614 37.5455 20.9614H43.2284Z" fill="black"/>
<path d="M55.0296 14.6452V35.5373H52.3137V10.5039H54.9611L55.0296 14.6452ZM63.7708 10.3188L63.7024 12.8638C63.398 12.8175 63.1013 12.7789 62.8123 12.7481C62.5232 12.7172 62.2113 12.7018 61.8765 12.7018C60.6897 12.7018 59.6475 12.9254 58.7498 13.3727C57.8673 13.8046 57.1217 14.4139 56.5131 15.2005C55.9045 15.9717 55.4404 16.8817 55.1209 17.9306C54.8014 18.964 54.6188 20.0745 54.5732 21.2622L53.5689 21.6555C53.5689 20.0206 53.7363 18.5013 54.071 17.0977C54.4058 15.6941 54.9155 14.4679 55.6002 13.419C56.3001 12.3548 57.175 11.5296 58.2248 10.9434C59.2899 10.3419 60.5376 10.0411 61.9678 10.0411C62.3178 10.0411 62.6601 10.072 62.9948 10.1337C63.3448 10.1799 63.6035 10.2416 63.7708 10.3188Z" fill="black"/>
<path d="M70.4596 0V35.5373H67.7437V0H70.4596ZM85.9565 10.5039L74.408 22.1183L69.5011 26.9306L69.0903 24.2236L73.0386 19.8972L82.5102 10.5039H85.9565ZM83.5829 35.5373L73.2669 22.5347L74.7732 20.1517L86.8694 35.5373H83.5829Z" fill="black"/>
<path d="M95.6579 17.3753L100.998 13.3033C101.972 12.5784 102.771 11.7995 103.395 10.9666C104.034 10.1183 104.353 9.12339 104.353 7.98201C104.353 6.88689 103.965 5.90745 103.189 5.0437C102.414 4.17995 101.295 3.74807 99.8345 3.74807C98.7694 3.74807 97.8717 3.98715 97.1414 4.4653C96.4111 4.92802 95.8633 5.56041 95.4981 6.36247C95.133 7.1491 94.9504 8.01285 94.9504 8.95373C94.9504 9.69409 95.0949 10.4653 95.384 11.2674C95.6883 12.054 96.1144 12.8792 96.6621 13.7429C97.2251 14.5913 97.9022 15.4859 98.6934 16.4267L114.852 35.5373H111.566L97.8033 19.3188C96.6773 17.9923 95.6883 16.7661 94.8363 15.6401C93.9994 14.5141 93.3528 13.419 92.8963 12.3548C92.4399 11.2905 92.2116 10.1877 92.2116 9.04627C92.2116 7.45758 92.5235 6.09255 93.1474 4.95116C93.7712 3.80977 94.6537 2.93059 95.7949 2.31362C96.936 1.68123 98.2826 1.36504 99.8345 1.36504C101.326 1.36504 102.596 1.67352 103.646 2.29049C104.711 2.89203 105.525 3.69409 106.088 4.69666C106.651 5.6838 106.932 6.77892 106.932 7.98201C106.932 8.98458 106.712 9.91774 106.271 10.7815C105.845 11.6452 105.289 12.4319 104.605 13.1414C103.935 13.8355 103.228 14.4756 102.482 15.0617L96.4111 19.8046C95.1025 20.8689 94.1288 21.8483 93.4897 22.7429C92.8659 23.6375 92.4551 24.4319 92.2573 25.126C92.0595 25.8201 91.9606 26.4216 91.9606 26.9306C91.9606 28.1183 92.2345 29.2211 92.7822 30.2391C93.33 31.2571 94.1668 32.0745 95.2927 32.6915C96.4187 33.3085 97.8337 33.617 99.5378 33.617C100.968 33.617 102.353 33.3085 103.692 32.6915C105.031 32.0591 106.225 31.1645 107.275 30.0077C108.34 28.8355 109.177 27.4473 109.785 25.8432C110.409 24.2236 110.721 22.4267 110.721 20.4524H113.232C113.232 21.9177 113.087 23.2905 112.798 24.5707C112.524 25.8509 112.113 27.0308 111.566 28.1105C111.018 29.1902 110.341 30.1851 109.534 31.0951C109.413 31.2494 109.329 31.3727 109.283 31.4653C109.253 31.5578 109.177 31.6658 109.055 31.7892C107.838 33.0848 106.408 34.1105 104.764 34.8663C103.121 35.6221 101.379 36 99.5378 36C97.4229 36 95.5894 35.6221 94.0375 34.8663C92.5007 34.1105 91.3139 33.054 90.4771 31.6967C89.6555 30.3239 89.2446 28.7352 89.2446 26.9306C89.2446 25.5887 89.5261 24.3702 90.0891 23.2751C90.6521 22.1799 91.4204 21.1542 92.3942 20.1979C93.368 19.2416 94.4559 18.3008 95.6579 17.3753Z" fill="black"/>
<path d="M143.382 19.527V31.5116C143.002 32.0823 142.348 32.7147 141.42 33.4087C140.492 34.1028 139.244 34.7121 137.677 35.2365C136.11 35.7455 134.162 36 131.834 36C129.886 36 128.099 35.6452 126.471 34.9357C124.843 34.2262 123.428 33.2005 122.226 31.8586C121.039 30.5013 120.118 28.874 119.464 26.9769C118.825 25.0797 118.505 22.9512 118.505 20.5913V16.5193C118.505 14.2057 118.802 12.1234 119.396 10.2725C119.989 8.40617 120.849 6.80977 121.975 5.48329C123.1 4.15681 124.455 3.14653 126.037 2.45244C127.635 1.74293 129.422 1.38817 131.4 1.38817C133.865 1.38817 135.942 1.82005 137.631 2.6838C139.32 3.54756 140.636 4.73522 141.579 6.24679C142.538 7.74293 143.131 9.43959 143.36 11.3368H140.552C140.339 9.99486 139.898 8.76093 139.229 7.63496C138.559 6.49357 137.585 5.57584 136.307 4.88175C135.044 4.18766 133.409 3.84062 131.4 3.84062C129.788 3.84062 128.35 4.14139 127.087 4.74293C125.839 5.34447 124.789 6.20051 123.937 7.31105C123.085 8.42159 122.439 9.75578 121.997 11.3136C121.556 12.856 121.335 14.5758 121.335 16.473V20.5913C121.335 22.5656 121.579 24.347 122.066 25.9357C122.568 27.5244 123.283 28.8895 124.211 30.0308C125.139 31.1722 126.25 32.0514 127.543 32.6684C128.837 33.2699 130.274 33.5707 131.857 33.5707C133.546 33.5707 134.984 33.4087 136.17 33.0848C137.357 32.7609 138.308 32.3753 139.023 31.928C139.754 31.4653 140.279 31.0334 140.598 30.6324V21.9563H131.674V19.527H143.382Z" fill="black"/>
<path d="M148.953 23.4139V22.6504C148.953 20.8303 149.212 19.1491 149.729 17.6067C150.246 16.0643 150.984 14.7301 151.943 13.6041C152.917 12.4781 154.081 11.6067 155.435 10.9897C156.789 10.3573 158.295 10.0411 159.954 10.0411C161.627 10.0411 163.141 10.3573 164.495 10.9897C165.85 11.6067 167.014 12.4781 167.987 13.6041C168.961 14.7301 169.707 16.0643 170.224 17.6067C170.741 19.1491 171 20.8303 171 22.6504V23.4139C171 25.2339 170.741 26.9152 170.224 28.4576C169.707 29.9846 168.961 31.3111 167.987 32.437C167.029 33.563 165.872 34.4422 164.518 35.0746C163.164 35.6915 161.658 36 159.999 36C158.326 36 156.812 35.6915 155.458 35.0746C154.103 34.4422 152.939 33.563 151.966 32.437C150.992 31.3111 150.246 29.9846 149.729 28.4576C149.212 26.9152 148.953 25.2339 148.953 23.4139ZM151.669 22.6504V23.4139C151.669 24.7866 151.852 26.09 152.217 27.3239C152.582 28.5424 153.114 29.6298 153.814 30.5861C154.514 31.527 155.381 32.2674 156.416 32.8072C157.451 33.347 158.645 33.617 159.999 33.617C161.338 33.617 162.517 33.347 163.537 32.8072C164.572 32.2674 165.439 31.527 166.139 30.5861C166.839 29.6298 167.364 28.5424 167.713 27.3239C168.079 26.09 168.261 24.7866 168.261 23.4139V22.6504C168.261 21.2931 168.079 20.0051 167.713 18.7866C167.364 17.5681 166.831 16.4807 166.116 15.5244C165.416 14.5681 164.549 13.8123 163.514 13.2571C162.479 12.7018 161.293 12.4242 159.954 12.4242C158.615 12.4242 157.428 12.7018 156.393 13.2571C155.374 13.8123 154.507 14.5681 153.791 15.5244C153.092 16.4807 152.559 17.5681 152.194 18.7866C151.844 20.0051 151.669 21.2931 151.669 22.6504Z" fill="black"/>
</svg>
